<?xml version="1.0" encoding="utf-8"?>
<!-- Generator: Adobe Illustrator 16.0.0, SVG Export Plug-In . SVG Version: 6.00 Build 0)  -->
<!DOCTYPE svg PUBLIC "-//W3C//DTD SVG 1.1//EN" "http://www.w3.org/Graphics/SVG/1.1/DTD/svg11.dtd">
<svg version="1.1" id="Layer_1" xmlns="http://www.w3.org/2000/svg" xmlns:xlink="http://www.w3.org/1999/xlink" x="0px" y="0px"
	 width="450px" height="300px" viewBox="0 0 500 350" enable-background="new 0 0 500 350" xml:space="preserve">
<path fill-rule="evenodd" clip-rule="evenodd" fill="#FFDF2B" d="M148.071,91.159c1.147-0.002,2.583,1.239,3.905,1.674
	c0.955-0.532,2.444-0.532,2.604-1.861c0.31,0,0.62,0,0.93,0c0.557-1.241,2.381-1.213,2.231-3.16c0.839-0.091,1.338-0.521,1.86-0.93
	c-0.367-0.388-0.143-1.234,0-1.673c0.447-0.076,0.404,0.34,0.93,0.186c0.714-0.749,2.158-0.366,3.347-0.929
	c0.587-0.279,1.241-0.462,1.301-1.116c0.264-0.015,0.527-0.031,0.558,0.187c1.278-1.202,2.638-2.321,4.462-2.977
	c0.368-0.438,0.644-0.967,0.93-1.487c0.154,0.947,1.188-0.518,1.302-1.301c2.642,0.661,4.19-2.058,5.764-2.977
	c3.412,0.304,5.674,2.322,4.648,5.58c-0.199,0.695,0.462,0.53,0.372,1.116c-0.118,0.626-0.534,0.953-0.372,1.858
	c-0.653-0.345-0.611,0.141-1.116,0.372c0.108,0.604-0.126,0.864-0.186,1.302c-1.043-0.176-0.699,1.036-1.116,1.488
	c-1.489,0.539-3.069,1.825-2.788,3.533c0.837,0.509,1.301,1.532,2.975,0.929c0.227-0.08,0.384-0.44,0.744-0.558
	c1.212-0.397,2.718-0.455,2.604-2.23c1.716,0.749,2.02-1.254,3.346-1.488c0-0.496,0-0.991,0-1.487
	c1.8-0.866,3.565-1.765,4.835-3.162c1.854,0.056,2.747-0.848,3.162-2.231c1.229-0.638,1.191,1.109,1.859,1.116
	c1.013,0.011,2.176-2.385,2.417-3.719c1.989-0.615,2.845-2.362,4.835-2.975c0.973,0.39,2.437,0.29,3.161,0.929
	c0.604,0.022,0.59-1.062,1.115-0.558c0.619,0.249,0.651,1.083,0.93,1.674c0.544-0.247,0.96,0.118,1.86,0
	c0.585,1.686,2.119,1.329,2.975,2.602c1.611-0.316,1.991,0.405,3.16-0.185c0.322,1.021,1.453,0.13,1.86,1.115
	c-0.151,3.808,3.005,4.309,3.904,7.066c-1.807-0.214-1.161,1.53-1.116,2.79c0.971-0.643,1.962-1.263,2.418-2.418
	c1.303-0.094,3.164-1.284,4.276-2.604c0.373,0.559,1.527,0.334,2.419,0.373c1.928,1.027,4.75,1.799,6.507,2.417
	c0.437-0.183,0.913-0.325,1.487-0.372c0.665-0.275,0.604,0.77,0.931,0.931c0.757,0.373,2.117-0.102,2.789,0.186
	c0.63,0.269,0.548,0.983,1.115,1.116c0.374,0.063,0.582-0.038,0.559-0.373c0.46,0.221,2.187,1.523,2.417,0.186
	c1.109,1.741,3.643,2.06,5.206,3.348c0.386-0.112,1.222,0.229,1.302-0.186c0.165,0.392,0.793,0.322,0.744,0.928
	c1.595,0.365,2.888,0.045,4.091,0.93c0.906,0.101,1.532-0.08,1.86-0.559c0.265,0.279,0.901,0.588,0.557,0.932
	c1.444,0.066,2.527,0.566,4.649,0.372c0.443,0.784,0.967,1.204,2.045,0.929c0.155,1.003,0.447,1.46,0.371,1.86
	c-0.036,0.193-1.243,0.479-0.743,1.674c-0.916,0.323-1.501,0.978-2.045,1.674c0,0.185,0,0.372,0,0.557h-0.186v0.186
	c-0.15-0.098-0.302-0.194-0.56-0.186c-0.049,0.463-0.697,0.621-0.186,1.116c0.334,0.023,0.393-0.227,0.745-0.187l0.093,0.279
	l0.093-0.279c0.165,0.083,0.332,0.164,0.372,0.373c0.853,0.172,0.897-0.465,1.673-0.373c0.755,1.333,2.231,2.793,4.276,2.232
	c1.626,1.25,4.179,0.9,5.207,2.417c2.264-0.113,4.724,0.735,5.95,2.23c0.097,1.646-0.704,2.396-0.743,3.906
	c1.449,0.78,3.674,0.788,5.578,1.114c0.105,0.825,1.155,0.705,1.302,1.49c3.209,0.882,5.92,0.717,9.669,1.487
	c0.252,0.677,0.94,0.919,1.115,1.673c0.265-0.016,0.527-0.031,0.558,0.185c2.383-0.661,3.58,0.845,5.207,1.489
	c0.766,0.146,0.954-0.287,1.674-0.186c0.939,0.845,2.333,1.633,4.091,1.115c0.727,0.265,1.2,0.782,1.859,1.115
	c0.879-0.508,2.905-0.596,3.16,0.559c1.142,0.496,2.15,0.7,2.789,1.302c-1.072,0.913-0.944,3.546,0.372,4.09
	c0.354-0.08,0.468-0.401,0.931-0.372c1.284,1.173,3.273,0.708,5.393,1.114c0.562,0.109,0.658,0.572,1.115,0.745
	c0.593,0.224,1.883-0.267,2.231,0.745c0.558,0,1.115,0,1.673,0c0.59,0.154,0.945,0.542,1.301,0.928
	c1.386,0.016,2.573,0.365,3.534,0.744c0.461,0.183,1.1,0.032,1.488,0.186c1.519,0.604,2.729,1.811,4.276,2.046
	c2.143,0.324,4.324-0.681,5.95,0.744c0.557,0.682,0.717,1.762,1.302,2.418c-0.305,1.12-1.617,1.233-1.859,2.416
	c-0.205,0.399-1.11-0.497-0.931,0.559c0.897,0.045,3.761-0.188,4.092,1.486c2.067-0.563,4.08,1.107,5.765,2.045
	c1.819,0.342,3.601,0.023,5.021,0.559c0.481,0.182,0.996,1.095,1.673,1.488c0.326,0.19,0.883,0.018,1.115,0.186
	c0.53,0.383,0.86,1.148,1.303,1.488c-0.009,0.859,0.103,1.838-0.372,2.23c-0.088,0.584,0.5,0.491,0.558,0.929
	c-0.095,0.527-0.45,0.791-0.558,1.303c1.093,1.717,3.794,0.121,5.95,0.186c0.483-0.371,0.903-0.95,1.859-1.302
	c0.527-0.193,0.823-0.976,1.115-1.115c0.429-0.204,1.393-0.138,2.046-0.372c0.336-0.12,0.494-0.62,0.744-0.742
	c0.322-0.16,1.605-0.364,1.486-0.374c2.519,0.213,2.307,4.356-0.371,4.835c-0.679,0.376-1.006,1.103-1.487,1.675
	c-0.578,0.104-1.143,0.222-1.115,0.929c-1.405,0.207-2.042,1.184-2.418,2.418c-0.333,0.022-0.394-0.229-0.743-0.187
	c1.079,0.839,2.456,1.035,4.276,1.303c0.724,0.104,2.075,0.253,3.347,0.37c0.819,0.078,1.43,0.51,2.231,0.744
	c1.068,0.315,2.275,0.261,3.161,0.56c0.685,0.229,1.246,0.949,2.231,0.742c0.034,0.525,0.884,0.231,0.744,0.931
	c2.034,0.109,2.894,0.082,4.091-0.744c2.002,1.909,4.806,0.833,7.623,1.859c-0.168,1.158,0.624,1.359,1.115,1.859
	c-0.255,1.17-0.54,2.311-1.301,2.975c-0.029,0.464,0.292,0.576,0.372,0.932c3.517,0.123,5.319-0.943,7.064,1.113
	c0.214,0.587-0.29,0.453-0.371,0.745c0.362,0.568,0.425,1.435,0.371,2.417c-0.485,0.057-0.177,1.313-0.743,0.744
	c-0.022,0.333,0.229,0.393,0.187,0.743c-0.878,0.104-1.086,0.591-1.674,0.559c-1.213,1.591-3.089,3.247-3.347,5.207
	c-1.033,0.016-0.879,1.144-1.674,0.929c-0.705,0.163-0.441,1.293-1.115,1.487c0.349,0.573,0.627-0.47,0.93-0.557
	c0.888-0.229,1.737-0.495,1.859-1.488c2.35,0.242,2.918-1.296,3.905-2.417c1.059,0.066,1.179-0.805,1.672-1.302
	c1.126,0.008,1.469-0.766,2.047-1.302c0.958,0.152,1.188-0.423,1.859-0.558c0.29-0.517,0.528-1.085,0.93-1.487
	c4.45-0.32,8.816-1.417,9.854,2.788c-0.963,0.834-1.228,2.367-2.604,2.79c-0.563,1.608,3.097,2.045,3.719,3.346
	c-0.047-0.101,0.233,2.04,0.187,2.232c-0.151,0.639-0.376,0.611-0.931,1.116c0.22,2.198,2.824,2.01,2.976,4.275
	c-0.519,0.845-1.488,1.237-1.672,2.418c-2.207-0.533-2.252,1.097-3.72,1.302c-0.259,0.238-0.113,0.877-0.371,1.115
	c-0.247-0.215-0.574,0.076-0.745,0.188c-1.316,0.863-3.187,2.219-4.09,3.159c0.897,0.521,2.374,0.023,2.604-0.743
	c1.639,0.389,2.841-1.07,4.09-1.674c1.176,0.499,2.809,0.539,3.533,1.488c-0.46,0.779-0.846,1.634-1.674,2.045
	c-0.042,0.33,0.188,0.932-0.372,0.744c0.18,0.951,0.15,1.291-0.187,2.045c1.457,0.953,2.573-1.301,3.72-1.859
	c-0.023-0.458-0.029-0.896,0.186-1.115c0.72,0.1,0.909-0.333,1.674-0.186c1.091-1.886,3.315-2.635,4.277-4.648
	c1.17,0.33,2.499,0.098,2.976-0.559c2.937-0.087,4.179,1.523,5.577,2.976c0.103,1.688-1.106,1.794-1.486,3.347
	c0.745,0.807,2.237-0.522,2.417-1.488c0.68-0.312,0.912-1.069,1.859-1.115c0.622-0.747,1.372-1.896,2.417-2.789
	c0.109-0.094,0.437,0.081,0.559,0c0.221-0.147,0.485-0.679,0.743-0.93c0.407-0.395,0.664-0.382,1.116-0.744
	c1.568-1.255,2.178-2.17,4.276-1.858c1.502,0.222,2.813,1.593,3.905,2.603c-0.197,1.043-0.221,2.259-0.187,3.533
	c-2.337,1.629-5.121,2.813-6.694,5.207c-0.447-0.076-0.404,0.339-0.931,0.186c-1.472,1.688-3.406,2.914-4.462,5.021
	c-1.05-0.06-1.394,0.589-1.487,1.487c-3.141,1.63-5.226,4.455-7.252,6.695c-1.793,0.033-2.656,2.024-3.719,3.346
	c-0.247,0-0.495,0-0.744,0c-0.782,1.91-1.809,2.425-3.347,3.533c-1.498,3.336-5.669,4-6.694,7.81
	c-0.431-0.06-0.714,0.029-0.93,0.186c-1.063,1.107-2.407,1.933-3.16,3.349c-2.048,2.104-4.717,3.588-5.951,6.509
	c-1.527,0.039-2.473,2.22-3.719,3.159c0.13,0.572,0.13,0.358,0,0.931c-0.536,0.083-0.581,0.657-1.302,0.557
	c-0.547,1.221-1.901,1.715-1.858,3.161c-1.079,0.471-1.909,1.19-2.604,2.047c0.713,1.334,1.71-0.554,2.974-0.373
	c0.167-0.71-0.303-1.186,0-1.487c1.13,0.327,2.339-1.781,3.533-0.373c-0.396,1.558-0.621,2.65-0.185,4.277
	c-0.332-0.111-0.773,0.545-0.932,0c-1.324,1.649-3.008,2.941-3.903,5.021c-0.354,0.08-0.468,0.399-0.93,0.371
	c0,0.311,0,0.62,0,0.931c-1.976,1.31-3.151,3.417-5.021,4.834c0.135,0.567-0.189,0.678-0.186,1.116
	c-0.886-0.461-0.813,1.004-1.858,0.929c-1.036,1.604-1.989,2.141-2.79,3.906c-0.354-0.351-0.336,0.109-0.93,0
	c-1.715,1.813-4.35,3.702-4.648,5.392c-0.052,0.39-0.496-0.27-0.744,0.186c0.06,0.437,0.294,0.699,0.187,1.302
	c-1.568,0.913-3.477,1.483-3.719,3.719c-0.842,0.213-1.282,0.826-2.231,0.931c-0.195,1.644-2.175,1.929-2.047,3.347
	c-1.596-0.202-2.012,0.799-2.045,1.674c-1.357-0.084-1.792,1.628-2.789,1.302c-0.259,0.724-0.26,1.415-0.372,1.858
	c-0.853-0.141-1.829-0.215-2.789,0.186c-0.769,0.322-1.21,0.713-2.604,0.559c-1.998-0.221-4.282-1.528-6.136-0.744
	c-0.371-1.859-1.679-2.783-2.976-3.719c-0.74,0.127-1.265,0.471-2.23,0.373c-1.413-1.41-3.819-2.906-2.231-4.835
	c0.718-0.872,1.553-2.228,1.859-3.348c-0.462-0.063-0.639-0.23-1.674-0.371c-0.291,0.314-2.912,2.834-0.929,3.16
	c-0.884,0.724-0.546,0.974-0.187,2.046c-1.402,2.132-2.677,4.392-4.649,5.95c0.13,0.571,0.13,0.358,0,0.929
	c-0.734,0.01-1.078,0.41-1.673,0.559c-0.124,0.684-0.362,1.251-0.373,2.046c-0.524,0.152-0.481-0.262-0.93-0.186
	c-0.375,0.554-0.941,0.916-1.302,1.487c-1.212,0.042-2.229,0.205-3.346-0.186c-0.637,0.63-2.058,0.279-2.604,0.557
	c-1.534-1.006-3.956-1.127-3.905-3.719c-0.316,0.069-0.35-0.146-0.372-0.371c-1.791-0.057-3.367,0.103-4.463,0.743
	c-0.625-0.065-1.355-0.422-1.674,0.185c-1.763-0.589-3.686-1.021-4.647-2.415c0.383-1.136-0.718-1.753-0.372-2.231
	c-0.167-0.601,0.605-0.262,0.743-0.559c0.328-0.548,1.26-1.25,0.744-2.045c-2.042-0.561-3.397-1.811-5.765-2.046
	c-0.64-0.475-0.756-1.476-0.929-2.417c1.621-1.468,1.652-3.731,3.347-4.835c0.307-1.591,1.134-1.606,1.301-3.16
	c0.711-0.345,1.372-0.738,1.302-1.858c-1.355-0.777-2.749-0.51-3.719,0.184c-0.705,0.504-1.085,1.518-1.859,2.231
	c-0.653,0.604-1.736,0.615-1.674,1.487c-0.247,0-0.496,0-0.743,0c-0.65,1.521-2.262,2.077-2.603,3.905c-0.373,0-0.745,0-1.116,0
	c-0.554,0.003-0.239,0.877-0.559,1.115c-0.748,0.739-2.226,0.749-2.046,2.417c-1.47,0.155-2.297,1.225-1.859,2.232
	c-0.645,0.657-2.139,0.463-2.417,1.489c-3.077,0.175-7.019,1.275-8.925-1.489c-0.257-0.879,0.583-1.224,0.186-1.673
	c-1.517,0.196-4.852-1.421-5.393,0.744c-0.814-0.549-1.449-1.277-2.603-1.489c-0.409,0.212-0.618,0.623-1.115,0.745
	c-0.82-0.296-1.577-0.657-2.046-1.302c-0.659-0.102-0.458,0.657-1.116,0.557c-0.996-0.119-1.681-0.551-2.789-0.557
	c-0.082-0.696-0.821,0.137-0.371-0.56c-1.51-0.049-2.081,0.106-2.79-0.743c-0.331,0.289-0.729,0.511-1.115,0.743
	c-1.083-0.651-2.477-0.993-3.16-2.045c-0.477,0.622-0.814,0.277-1.489,0.558c0.897,2.663-1.897,2.996-2.231,5.021
	c-0.643-0.148-0.783,0.207-1.114,0.372c0.207,0.585,0.016,0.421,0,1.117c-1.825,0.033-2.102,1.616-4.278,1.3
	c-0.015,0.116,0.254,0.224,0.372,0.186c-2.067,0.659-4.152,0.605-6.322,0.559c0.119-1.331-2.241-1.624-2.974-0.931
	c-0.703-0.538-1.684-0.798-2.047-1.673c-0.703,0.285-1.147-0.18-1.858-0.186c-2.074-0.023-4.57,1.774-5.951-0.372
	c-1.082,0.513-2.754-0.253-3.16-1.488c-0.83,0.492-1.646-0.476-4.092-0.186c-0.271-0.533-1.063-0.547-1.115-1.302
	c-0.653,0.338-1.837,0.146-2.045,0.931c-0.821-0.669-1.313-1.663-3.162-1.302c-1.233-0.869-0.085-2.194-0.371-3.348
	c1.771-0.289,2.264-2.797,2.417-4.091c-0.384-0.607-0.962,0.138-1.302,0.187c-1.105-0.533-0.159-1.756,0-2.789
	c0.092-0.601-0.465-1.708,0.559-1.86c-0.275-0.47-0.658-0.831-0.745-1.487c1.056,0.186,0.786-0.949,1.488-1.116
	c-0.799-2.76,1.835-3.11,1.487-5.392c0.861,0.393,1.807-0.484,2.046-2.045c0.31,0,0.62,0,0.93,0
	c0.709-0.098,0.175-1.438,1.301-1.117c0.009-0.982,0.842-1.142,0.559-2.417c0.331,0.11,0.772-0.545,0.929,0
	c-0.094-0.355,0.342-0.254,0.558-0.743c-0.002,0.005-0.063-0.651,0-0.744c0.312-0.452,1.168-0.529,0.744-2.045
	c0.269-0.412,0.454,0.232,0.559-0.186c0.023-0.334-0.228-0.394-0.186-0.744c-1.558,0.988-2.246,3.95-4.463,4.09
	c-0.503,1.854-2.287,2.423-2.789,4.276c-1.932,0.527-3.353,2.771-4.091,3.348c-0.509,0.055,0.586,0.983,0,1.115
	c-0.116,0.463-0.413,0.359-1.116,0.56c-0.722,0.331-0.919,1.187-1.302,1.858c-0.462-0.021-0.575-0.349-0.93,0
	c-1.223,1.442-2.348,2.983-3.905,4.093c0.507,0.894-0.588,1.084-0.929,1.67c0.256,0.564-0.089,0.667,0,1.489
	c-0.456,0.351-1.333,0.278-1.859,0.559c0.45,0.148,0.775,1.583,1.114,2.416c-0.812-0.255-0.395,0.721-1.114,0.559
	c-0.537,0.951-0.327,2.648-1.487,2.975c0.341,1.093-1.202,1.555-2.047,2.045c-0.182,0.396-0.079,0.692-0.558,1.117
	c-1.001,0.214-1.873-0.224-2.789-0.186c-0.376,0.014-0.571,0.304-0.929,0.37c-0.576,0.106-0.955-0.122-1.674-0.185
	c-1.127-0.1-2.374,0.243-3.161,0.185c-1.741-0.131-3.468-1.419-5.579-0.558c-1.349-2.074-4.176,0.048-5.207-1.487
	c-2.615,0.105-3.743,0.555-5.764,0.558c-1.222-1.413-3.293-0.639-5.951-0.743c0.28,0.85-1.441,0.452-0.558,1.116
	c-0.666-0.067-1.574,0.785-2.045,1.486c-1.347,0.274-4.339,0.354-5.764-0.372c-0.605,0.14-1.151,0.337-1.673,0.559
	c-0.137-0.11-2.436-0.495-3.162-0.372c-0.887,0.148-1.086,0.804-1.859,0.744c-0.79-0.063-1.27-0.889-2.045-1.115
	c-0.405-0.119-0.795,0.222-1.116,0.185c-1.057-0.122-1.82-0.815-2.79-0.929c-0.508-0.137-0.374,0.37-0.743,0.371
	c-0.611-0.07-0.82-0.544-1.302-0.744c-2.987-0.26-6.724-0.957-9.297-0.372c-0.055-0.379-0.373-0.493-0.558-0.742
	c-2.719-0.245-4.603,1.051-6.323-0.56c0.016-0.294-0.089-0.708,0.186-0.743c-1.464-0.581-1.875-2.215-3.16-2.976
	c-3.307-0.65-7.219-0.938-9.855,0c-1.234-0.354-2.373-0.999-3.347-0.186c-0.883-0.391-3.007-1.334-3.534-0.371
	c0.167-0.568-0.889-0.048-1.116,0c-0.328-0.168-0.576-0.417-0.744-0.744c-3.476-0.668-5.351-2.404-8.181-3.349
	c-0.496-1.054-2.052-2.035-1.86-3.159c-0.279-0.404-0.931-0.433-0.93-1.116c0.708,0.149,0.237-0.879,0.372-1.302
	c0.71,0.404,0.582-0.172,0.93-0.557c-0.018-0.359-0.726,0.32-0.744-0.372c-1.42,1.482-2.509,2.502-4.09,3.532
	c0.033,1.007-1.119,1.245-0.744,2.046c-0.167-0.084-0.333-0.164-0.373-0.372c-0.692,1.187-0.983,1.207-1.859,1.674
	c-0.244,1.237-1.497,0.961-1.301,2.603c-0.37-0.309-0.237,0.017-0.744,0c0.303,1.543-1.471,0.984-2.045,2.046
	c-1.54-0.628-2.696,0.45-4.463,0.186c-0.134-0.487-0.669-0.57-0.744-1.115c-0.931-0.126-1.439,0.173-2.231,0.186
	c-0.713-0.702-1.699-0.48-2.603-0.745c-0.274-0.077-0.444-0.462-0.744-0.557c-0.563-0.178-1.576-0.027-2.231-0.186
	c-0.924-0.224-2.138-0.122-3.347-0.371c-1.839-0.381-3.451-1.627-5.578-1.116c-0.621-0.366-0.753-0.339-1.674-0.372
	c-1.459-0.055-3.133-1.146-4.463-1.302c-1.105-0.13-2.314,0.244-3.532,0c-0.801-0.161-1.315-0.904-2.232-0.558
	c-0.345-0.523-0.872-0.864-1.115-1.487c0.598-1.123,0.67-1.896,1.302-3.162c0.766-0.164,1.408-0.451,1.301-1.487
	c1.165-0.075,1.536-0.943,2.046-1.674c0.166,0.145,0.42,0.2,0.743,0.186c1.811-1.604,2.335-3.358,4.463-4.647
	c-0.046-0.789,0.486-1.002,0.372-1.858c-0.448-0.917-2.224-0.506-2.417-1.676c-0.827,0.146-1.115-0.248-1.859-0.186
	c-0.633-1.648-3.15-1.262-3.719-3.346c0.521-1.092,2.173-1.052,1.859-2.976c1.229-0.754,2.182-1.785,2.604-3.348
	c0.507-0.017,0.374,0.31,0.743,0c2.509-2.881,5.345-4.609,7.625-7.438c-1.77,0.481-3.745-2.088-6.137-0.929
	c-0.722-0.208-0.951-0.909-1.674-1.115c-0.525-0.155-0.481,0.261-0.929,0.185c-4.369-2.117-6.076,3.198-8.368,4.277
	c-0.391,0.053,0.269,0.496-0.187,0.744c-1.529,0.578-2.828,2.377-3.161,3.531c-0.577,0.168-0.712,0.777-1.488,0.745
	c-0.063,0.657-0.512,0.458-0.186,1.115c-2.195,1.959-4.785,3.521-5.951,6.509c-0.243,0.146-1.374,0.337-0.743,0.743
	c-1.838,0.394-2.079,2.383-3.719,2.975c-0.023,0.729-1.411,1.06-1.116,1.489c-0.853,0.313-2.689,1.906-2.603,3.16
	c-0.318-0.008-0.482,0.139-0.558,0.371c-2.299-0.64-4.888,0.079-6.88-1.302c0.458-1.595-0.569-3.629,0.93-4.275
	c0.05-2.492,2.167-2.915,2.603-5.021c0.63,0.243,1.202-0.974,1.116-2.046c0.86-0.813,2.077-1.27,2.045-2.975
	c1.032-1.075,2.546-1.668,2.789-3.533c0.792-0.202,1.104-1.212,1.301-1.487c0.585-0.812,1.303-1.087,1.302-2.418
	c0.911-0.453,1.635-1.093,1.673-2.417c0.492,0.292,0.579,0.207,0.373-0.371c1.249,0.601,0.941-1.554,2.417-1.303
	c0.193-0.736,0.984-0.875,0.929-1.859c-1.411-0.858-2.92-1.383-4.462-1.674c-0.638,1.076-1.727,2.679-1.116,3.904
	c-0.344,0.925-1.035,1.305-1.859,1.303c0.26,2.451-2.769,2.975-3.904,4.091c-2.321-0.653-3.762-2.189-6.323-2.604
	c-1.446-1.099-1.56-2.602-1.673-4.464c0.926,0.246,0.791-0.571,1.488-0.557c0.104-1.011,0.74-1.491,1.302-2.046
	c-0.055-2.41,2.088-2.621,2.231-4.834c0.909-0.331,1.592-0.887,1.674-2.045c0.462-0.282,0.856-0.632,1.115-1.116
	c-0.406-0.396-1.571-0.635-1.86,0c-1.436-0.295-3.038-1.155-4.276-0.186c-0.523-0.282-0.731-0.881-1.673-0.744
	c-0.752-0.072-0.856,0.507-1.302,0.744c-1.193-0.634-2.347,0.353-3.533,0.186c-0.683-0.096-0.941-0.257-1.859-0.186
	c-2.067,0.161-3.808-1.028-5.765-1.116c-0.371-0.016-0.307,0.3-0.743,0.372c-0.322,0.053-0.885-0.215-1.116-0.186
	c-0.757,0.096-0.291,0.33-1.301,0.186c-0.988-0.141-1.793-0.903-2.975-1.116c-0.319-0.057-0.565,0.182-0.93,0.187
	c-0.841,0.012-1.698-0.668-2.789-0.187c-0.684-1.207-1.669-2.396-1.859-3.719c-0.161-1.117,0.838-2.261,0.372-3.531
	c0.317,0.008,0.482-0.14,0.558-0.373c-0.242-1.348,0.588-2.238,0.93-3.16c0.175-0.475,0.061-0.849,0.186-1.302
	c0.009-0.035,0.361,0.033,0.372,0c0.195-0.622-0.124-1.296,0.558-1.674c0.132-0.69-0.317-0.799-0.186-1.488
	c1.663-2.436,2.228-5.513,2.046-8.554c1.029-1.016,1.056-3.034,2.417-3.719c-0.123-2.51,2.577-3.723,2.789-6.509
	c1.413-0.162,2.257-3.629,2.418-3.532c-0.642-0.417,0.753-0.346,0.372-1.116c1.304-0.308,1.573-1.651,2.045-2.789
	c0.567,0.009,0.723-0.392,1.116-0.558c-0.004-0.438,0.32-0.547,0.186-1.116c0.941,0.272,1.71-1.105,1.674-2.417
	c0.786-0.453,1.176-1.303,1.115-2.604c1.652-0.021,1.231-2.116,2.417-2.602c0-0.436,0-0.869,0-1.304
	c0.151,0.037,0.186,0.188,0.373,0.187c1.376-1.29,2.478-2.852,3.905-4.09c0.107-1.568,1.764-2.572,1.487-3.906
	c2.586-0.078,2.348-2.982,3.719-4.275c-0.016-0.295,0.089-0.71-0.186-0.745c0.677,0.288,0.53-1.144,1.488-1.115
	c0.008-1.418,1.46-1.39,1.487-2.789c1.399-0.584,1.411-2.555,2.975-2.976c0.076-1.203,1.355-1.851,0.93-2.975
	c0.749-0.305,0.967-1.141,1.859-1.301c-0.25-0.774,0.584-1.301,1.116-2.232c0.578-1.011,0.756-1.824,1.487-2.789
	c0.115-0.15,0.255-0.184,0.373-0.372c0.11-0.177,0.125-0.712,0.743-0.558c-0.385-1.242,1.325-1.693,1.302-3.161
	c1.028-0.308,1.826-2.068,1.301-2.789c0.356-0.513,0.79-0.948,1.301-1.302c0-0.309,0-0.62,0-0.93
	c0.842-0.553,1.39-2.287,2.232-2.231c-0.494-2.231,1.692-2.768,1.488-4.091c0.198-0.422,0.563-0.675,1.115-0.744
	c-0.049-1.366,1.769-2.373,0.558-3.719c1.523,0.463,1.227-1.656,2.417-2.045c0.001-0.497-0.587-0.405-0.557-0.929
	c0.918,0.304,1.308-1.38,2.045-1.86c-0.023-0.767,0.324-1.164,0.187-2.045c0.563-0.056,0.522-0.718,1.116-0.742
	c-0.349-0.355-0.021-0.468,0-0.931c0.503-0.116,0.462-0.777,1.115-0.745c0.521-2.268,1.982-3.595,2.604-5.763
	c0.379-0.104,0.364-0.56,0.743-0.186c-0.034-1.027,0.659-1.325,0.93-2.045c-0.099-0.149-0.194-0.303-0.186-0.559
	c-1.413-0.048-1.568,1.16-2.232,1.86c-0.922-0.238-0.914,0.449-1.673,0.374c-1.482,1.492-3.379,2.57-4.462,4.461
	c-1.788,0.257-2.148,1.943-3.905,2.232c-0.84,0.77-1.752,1.471-1.859,2.975c-0.583,0.224-0.923,0.688-1.86,0.558
	c-0.59,0.525-1.045,1.186-1.859,1.489c0.02,0.639,0.097,1.334-0.372,1.486c0.482,0.759,1.771,0.708,2.045,1.673
	c-0.309,0.373-0.499,0.866-1.116,0.931c0.091,0.834-0.094,1.393-0.186,2.045c-0.496,0-0.992,0-1.488,0
	c-0.585,0.876-1.415,1.637-0.93,2.231c-0.477,0.16-1.269-0.957-2.232-0.93c-0.621,0-0.493,0.747-0.93,0.93
	c-1.867,0.008-3.187-0.533-3.719-1.859c-0.151-0.894,0.816-0.672,0.558-1.674c-0.797-1.356-4.33-1.804-3.347-3.718
	c-1.191-0.52-2.327,0.488-3.162,0.93c-2.292,0.122-3.36-0.979-4.276-2.23c0.004-2.349,0.731-2.949,1.116-5.021
	c0.593,0.158,0.575-0.293,0.929-0.373c0.444-2.502,2.637-3.701,3.905-5.392c0.12-0.161-0.099-0.565,0-0.743
	c0.097-0.176,0.682-0.48,0.93-0.745c0.468-0.498,0.883-0.845,1.115-1.674c1.183-0.135,1.495-1.513,2.418-2.417
	c0.096-0.093,0.446,0.078,0.557,0c-0.092,0.065,1.297-1.291,1.302-1.301c0.161-0.305-0.112-1.05,0.186-1.303
	c1.515-0.115,2.339-2.483,4.092-2.975c-0.006-1.368,1.23-1.496,1.301-2.789c2.392-0.832,3.781-2.665,5.021-4.649
	c0.431,0.06,0.713-0.031,0.929-0.186c1.86-1.163,3.021-2.984,4.835-4.278c0.44-0.312,0.687-0.933,1.115-1.302
	c1.25-1.072,2.92-1.687,3.533-3.532c0.969,0.298,1.91-0.904,2.232-1.858c1.068-0.42,1.659-1.318,2.045-2.418
	c2.135-0.159,3.131-1.456,4.463-2.418c0.038-1.633,1.881-2.41,2.604-3.905c1.155,0.69,2.792-0.249,2.045-1.486
	c0.94,0.133,1.406-0.207,1.859-0.559c0-0.433,0-0.868,0-1.302c0.271,0.103,0.961-0.215,0.93,0.186
	c1.233-1.741,3.253-2.697,4.648-4.276c-0.145-0.166-0.2-0.42-0.186-0.745c0.752,0.298,1.372-0.395,1.673-1.487
	c0.894-0.159,1.517-0.59,1.859-1.302c1.262,0.592,2.264-0.551,3.905-0.187c2.209,1.83-0.896,3.591-0.93,5.951
	c-1.135-0.119-1.345,0.987-2.23,1.673c-0.977,0.757-1.826,0.629-2.046,2.047c-0.808,0.245-1.248,0.858-1.859,1.301
	c0.218,0.493-0.356,1.096,0,1.116c-1.838,0.49-3.855,1.675-3.905,3.347l-0.279-0.094l-0.279,0.094c-0.124,0-0.248,0-0.372,0
	c-0.21,0.595-0.378,1.232-0.372,2.045l-0.279-0.094l0.093,0.279c-1.116,0.186-1.477,1.127-2.79,1.117
	c-0.32,0.237-0.003,1.111-0.558,1.116c-2.203,0.213-3.2,1.633-4.462,2.788c-0.333,0.024-0.393-0.228-0.743-0.186
	c-0.828,0.879-0.748,1.813-1.859,1.674c-0.193,0.489-0.223,1.142-0.187,1.859c-2.249-0.545-2.594,3.158-4.834,2.603
	c-0.603,0.883-1.747,1.227-1.86,2.603c-2.103,0.625-2.559,2.896-4.462,3.718c0.042,0.663-0.125,1.116-0.558,1.303
	c-0.239-0.257-0.808-0.184-1.301-0.186c-0.291,1.271,0.943,0.359,1.488,0.371c0.349,0.01,0.407,0.401,0.743,0.374
	c0.595-0.051,1.292-0.644,2.045-0.374c0.397-0.781,0.656-0.863,0.372-1.673c1.276-0.584,2.366-1.353,3.162-2.417
	c1.182-0.368,1.865-1.234,2.603-2.045c0.585,0.089,0.728-0.265,1.116-0.373c-0.182-1.441,1.099-1.703,0.929-2.603
	c0.275,0.097,0.469,0.275,0.745,0.372c0.626-1.17,2.682-0.912,2.603-2.789c0.576,0.394,0.791-0.859,1.488-0.929
	c0.578-0.082,1.611-0.383,2.23-0.932c-0.092-1.085,0.843-1.139,0.559-2.418c1.674-0.06,2.129-1.34,3.161-2.044
	c0.359-0.198,0.986-0.129,0.744-0.93l0.279-0.092l-0.279-0.093c0.14-0.813,1.044,0.214,1.487-0.372c0-0.125,0-0.249,0-0.373
	l0.279-0.216L90.8,71.634c0.743-0.31,0.765-1.343,1.859-1.301c0.771-0.655,1.127-1.723,2.417-1.859
	c0.829-0.472,1.03-1.573,1.673-2.231c0.37-0.31,0.236,0.017,0.744,0c1.096-1.199,2.449-2.138,2.976-3.904
	c0.694-0.015,0.903,0.459,1.301,0.742c0.252-0.428,0.535-0.828,0.558-1.487c1.295,0.323,1.448-0.209,2.417-0.558
	c-0.112-0.445-0.267-0.848-0.186-1.488c0.566,0.008,0.724-0.392,1.116-0.558c-0.086-1.325,1.156-1.324,1.302-2.418
	c0.989,0.444,1.121,0.187,1.673-0.558c2.248,0.587,3.926-1.074,5.578-1.302c1.482-0.203,2.526,0.354,3.72,1.487
	c0.551,1.976-0.839,2.334-0.373,4.091c-0.248,0-0.496,0-0.744,0c-0.386,0.792-1.188,1.168-1.673,1.86
	c1.545,0.658,4,0.143,5.207,1.488c-0.193,0.984-0.363,1.992-0.373,3.16c-0.609,0.439-1.185,0.84-1.115,1.488
	c-1.832,0.153-1.806,2.162-3.719,2.231c-1.134,1.718-3.186,2.517-3.905,4.649c-2.093-0.482-2.088,1.133-2.789,2.045
	c-2.166-0.306-2.519,1.202-3.161,2.418c0.601,0.699,1.764,0.838,2.417,1.488c1.133-0.449,2.198-1.206,2.232-2.233
	c1.321,0.018,2.101-1.489,2.975-1.301c0.31-0.249,0.29-0.827,0.558-1.116c1.074,0.107,3.023-0.251,2.789-2.045
	c0.758,0.014,0.882-0.606,1.86-0.372c0.72-0.829,1.647-1.451,2.046-2.603c1.041-0.075,1.419-0.811,2.417-0.93
	c0.542-0.593,0.421-1.192,1.116-1.487c0.083-0.037,0.784,0.414,1.115,0.372c0.806-0.103,1.092-0.399,1.488-1.302
	c1.395-0.218,3.017-0.208,4.649-0.186c0.698,0.355,0.468,1.639,0.744,2.417c-0.64,0.352-1.115,0.869-0.93,2.046
	c0,0.508-1.145,0.82-0.558,1.301c-1.165,0.074-1.289,1.19-2.603,1.115c-0.41,0.273-0.872,0.493-0.744,1.301
	c-1.038,0.018-1.104,1.004-2.417,0.745c-0.28,0.162,0.052,0.279-0.186,0.745c-2.168-0.122-2.043,2.047-3.347,2.79
	c-2.179-0.196-2.456,1.511-3.161,2.789c-1.079,0.061-2.403,0.266-2.976,1.302c-2.292-0.061-3.01,1.453-4.09,2.603
	c0.066,0.802,0.42,1.316,0.743,1.86c-0.146,1.16-1.092,1.857-0.743,2.975c1.983-0.185,2.682-1.656,3.532-2.975
	c0.494,0.001,1.062-0.07,1.302,0.186c0.803-0.994,1.687-1.907,2.975-2.417c0.987-0.899,1.816-2.255,3.534-2.046
	c0.86-1.865,2.742-2.711,4.276-3.905c0-0.433,0-0.867,0-1.3c0.899-0.625,3.557-0.661,3.72-1.86c1.332,0.223,1.383-1.144,3.161-0.93
	c0.252-0.058,0.154-0.467,0.187-0.745c1.391-0.521,3.67-0.048,5.206,0.373c-0.295,0.799,0.141,1.253,0,2.044
	c-0.323,1.817-2.292,2.969-2.045,5.393l-0.279-0.093l-0.092,0.278c-1.204-0.749-2.791-0.043-3.905,0.372
	c0.233,1.008,0.281,2.199,1.302,2.418c0.935-0.862,1.729-1.865,2.789-2.603l0.186,0.093l0.186-0.093
	c0.759-0.679,1.378-1.344,2.418-0.93c0.586-1.088,2.243-1.104,2.417-2.604c1.4-0.955,3.192-1.516,4.091-2.974
	c1.782-0.623,3.585-0.476,5.764-0.185c0.218-0.031,0.157-0.339,0.186-0.56c1.199,0.233,2.472-0.803,3.161-1.673
	c1.096,0.103,1.772-0.212,2.232-0.744c0.598,0.705,1.826,0.777,2.417,1.487c0.19,0.811-0.384,0.855-0.558,1.302
	c0.146,0.827-0.248,1.115-0.187,1.859c-1.423,0.733-1.176,2.669-1.858,3.905c-0.71,1.283-2.183,1.902-3.534,2.417
	c-0.444,0.529-1.31,1.053-0.93,1.859c-1.407,0.019-1.538,1.313-2.789,1.489c-0.273,1.027-1.886,0.715-1.673,2.229l-0.279-0.091
	l0.093,0.278c-0.151,0.035-0.186,0.186-0.372,0.186l-0.28,0.093l0.093,0.279c-0.294,0.016-0.708-0.09-0.743,0.185
	c0.113,0.056,0.715,0.464,0.743,0l0.28,0.095l0.093-0.28c0.201-0.046,0.125-0.369,0.372-0.372l0.279,0.093L148.071,91.159z
	 M-2668.755,1071.653c-3.762,0.293-5.053,3.051-7.367,4.789c-3.236,1.307-4.843,4.24-8.103,5.523
	c0.016,2.471-1.221,3.689-2.578,4.789c-1.048-0.592-2.972,0.561-4.788,0.369c-1.018,1.436-2.398,2.512-2.946,4.418
	c-1.846,0.609-3.15,1.762-5.156,2.211c-0.936,2.992-4.54,3.318-5.157,6.629c-2.199,0.256-2.825,2.084-4.049,3.314
	c-0.208-0.834-0.576,0.447-1.106-0.367c-0.966,2.346-3.673,2.953-3.315,6.627c4.131,0.482,5.786-4.463,9.576-5.523
	c0.083-1.512,0.913-2.277,1.842-2.947c5.296-2.068,7.86-6.869,12.521-9.576c0.277-1.193,0.667-2.279,1.106-3.314
	c3.604-1.051,5.597-1.689,7.733-4.418c1.996,0.031,2.834-1.094,4.051-1.842c0.692-0.701-0.218-0.666,0-1.842
	c2.841,0.09,3.519-3.361,5.893-2.578c-0.124-3.316,4.481-1.904,4.42-5.156c-0.737-0.734-1.077-1.871-2.209-2.209
	C-2668.408,1071.021-2668.86,1071.06-2668.755,1071.653z M-2803.553,1087.124c0,0.982,0,1.963,0,2.945
	c-1.563-0.461-0.984,1.225-1.841,1.473c-0.427-0.309-0.987-0.484-1.841-0.367c-1.278,1.664-2.108,3.785-2.947,5.893
	c0.737,0,1.474,0,2.211,0c1.103-3.605,8.154-3.781,7.365-6.998c2.138-0.121,2.542-2.174,1.473-4.42
	C-2801.248,1084.776-2801.677,1086.767-2803.553,1087.124z M-2811.654,1098.907c0.082-0.287,0.309-0.428,0.736-0.367
	c-0.163-1.064-0.777-1.678-1.841-1.84c-0.472,1.453,1.072,0.891,1.105,1.84C-2811.86,1098.54-2812.074,1098.839-2811.654,1098.907z
	 M-2774.088,1099.646c0.731,0.002,0.468,1.004,1.473,0.736c0.832-0.449,2.445-2.596,0.737-3.314
	C-2772.591,1097.948-2773.945,1098.19-2774.088,1099.646z M-2817.916,1102.958c0.946,0.039,0.526,1.439,1.474,1.475
	c0.771-0.898,0.527-0.785,0.367-2.211c1.023-0.818,2.727-0.955,3.316-2.207c-0.754-0.713-2.415-0.252-2.947,0.367
	c0.95,0.088-0.505,0.633,0,1.473C-2816.655,1102.499-2817.476,1101.472-2817.916,1102.958z M-2138.409,1238.491
	c0.151-0.627,0.475,0.08,1.104,0c0-0.246,0-0.488,0-0.734C-2137.508,1236.546-2139.722,1238.187-2138.409,1238.491z
	 M-2062.174,1302.206c0.998,0.342,3.441,0.699,3.315-1.104C-2060.04,1301.446-2061.131,1301.091-2062.174,1302.206z
	 M-2190.34,1350.085c0.628-1.334,0.944-2.982,1.474-4.42C-2194.393,1341.591-2200.082,1350.886-2190.34,1350.085z
	 M-2138.777,1404.226c0.681,0.055,0.225,1.248,0.736,1.473c1.099-0.127,1.466-0.99,1.841-1.84
	C-2137.214,1403.724-2138.074,1403.138-2138.777,1404.226z"/>
</svg>
